<svg xmlns="http://www.w3.org/2000/svg" width="171.195" height="42.374" viewBox="0 0 171.195 42.374">
  <g id="Group_4955" data-name="Group 4955" transform="translate(-2421 84)">
    <g id="Group_89" data-name="Group 89" transform="translate(2421.026 -83.219)">
      <g id="Group_61" data-name="Group 61" transform="translate(0 29.502)">
        <path id="Path_65" data-name="Path 65" d="M154.128,847.772l16.734-8.57-1.176-2.3-16.734,8.57a.992.992,0,0,0-.431,1.335l.271.53A.992.992,0,0,0,154.128,847.772Z" transform="translate(-152.217 -836.643)" fill="#f3f7f2"/>
        <path id="Path_66" data-name="Path 66" d="M152.845,846.956h0a1.184,1.184,0,0,1-1.058-.646l-.271-.53a1.189,1.189,0,0,1,.516-1.6l16.908-8.659,1.354,2.644-16.908,8.659A1.189,1.189,0,0,1,152.845,846.956Zm15.925-10.908-16.56,8.481a.8.8,0,0,0-.346,1.073l.271.53a.8.8,0,0,0,.71.434h0a.79.79,0,0,0,.362-.088L169.768,838Z" transform="translate(-151.386 -835.523)" fill="#4d4d4d"/>
      </g>
      <g id="Group_64" data-name="Group 64" transform="translate(17.469 0)">
        <g id="Group_62" data-name="Group 62" transform="translate(0.23 0.265)">
          <path id="Path_67" data-name="Path 67" d="M244.554,711.187l.549-.3.17-.094c.444-.246,1.049-.583,1.793-1l.187-.105.718-.4.014-.009c6.222-3.517,18.335-10.575,29.508-18.3,4.611-3.188,8.619-6.187,11.913-8.913l.534-.444-.441,1.954a4.308,4.308,0,0,1-.116.418,4.368,4.368,0,0,1-1.45,2.064c-13.048,10.265-31.581,21.055-38.944,25.218l-.007,0-.007.005-.754.424c-.811.456-1.466.82-1.937,1.081l-.172.095-.535.295Z" transform="translate(-244.554 -681.617)" fill="#f3f7f2"/>
        </g>
        <g id="Group_63" data-name="Group 63">
          <path id="Path_68" data-name="Path 68" d="M288.68,680.943l-.33,1.46a4.094,4.094,0,0,1-.111.4,4.2,4.2,0,0,1-1.393,1.983c-13.039,10.258-31.563,21.043-38.922,25.2l-.015.008,0,0-.008,0h0l-.743.418c-.66.372-1.311.735-1.935,1.08l-.055.031-.086.047-.006,0,0,0-.019.01-.381.21-.288-.561-.008-.016-.568-1.1.285-.157.089-.049.031-.017.169-.093c.479-.265,1.1-.611,1.793-1l.156-.088.749-.422.014-.008,0,0,.009,0h0c6.233-3.524,18.34-10.58,29.509-18.3,4.615-3.19,8.627-6.192,11.925-8.922l.144-.12Zm.369-.722a.114.114,0,0,0-.074.028q-.326.274-.659.549c-3.561,2.948-7.659,5.972-11.9,8.9-11.282,7.8-23.582,14.947-29.5,18.291l-.011.007-.9.509c-.743.418-1.348.755-1.79,1l-.171.095-.12.067c-.376.207-.575.315-.575.315l.721,1.4.009.018.449.873s.241-.131.692-.381l.027-.014.144-.08c.471-.261,1.126-.625,1.937-1.082l.758-.427.011-.007c7.647-4.323,25.97-15.008,38.966-25.233a4.553,4.553,0,0,0,1.507-2.145,4.384,4.384,0,0,0,.12-.434l.477-2.115a.117.117,0,0,0-.114-.142Z" transform="translate(-243.345 -680.221)" fill="#4d4d4d"/>
        </g>
      </g>
      <g id="Group_65" data-name="Group 65" transform="translate(21.027 3.069)">
        <path id="Path_69" data-name="Path 69" d="M303.456,696.379c-3.125,2.539-6.363,4.935-9.654,7.254-.822.581-1.651,1.152-2.481,1.721s-1.664,1.133-2.5,1.7-1.677,1.113-2.515,1.671l-2.531,1.646c-.848.542-1.693,1.09-2.545,1.625s-1.7,1.075-2.557,1.606q-2.562,1.6-5.149,3.157-5.171,3.12-10.42,6.11l.009-.006-.011.007-.009.006-.9.511-.115-.2.905-.507-.009.006.011-.007.009-.006q5.262-2.959,10.445-6.057,2.59-1.55,5.162-3.132,1.286-.79,2.564-1.593c.855-.531,1.7-1.075,2.552-1.612l2.539-1.634c.84-.553,1.687-1.1,2.522-1.658s1.676-1.114,2.506-1.683,1.664-1.131,2.489-1.709C297.071,701.284,300.32,698.9,303.456,696.379Z" transform="translate(-262.075 -696.379)" fill="#4d4d4d"/>
      </g>
      <g id="Group_66" data-name="Group 66" transform="translate(18.326 29.04)">
        <path id="Path_70" data-name="Path 70" d="M249.08,835.442l-1.224-2.273.15-.075Z" transform="translate(-247.856 -833.094)" fill="#f3f7f2"/>
      </g>
      <g id="Group_67" data-name="Group 67" transform="translate(19.859 30.797)">
        <path id="Path_71" data-name="Path 71" d="M255.927,842.923s.062-.042.157-.1.225-.134.355-.208.263-.143.364-.192.169-.081.169-.081-.062.042-.157.1-.225.134-.355.208-.263.143-.364.192S255.927,842.923,255.927,842.923Z" transform="translate(-255.927 -842.341)" fill="#f3f7f2"/>
      </g>
      <g id="Group_68" data-name="Group 68" transform="translate(18.778 28.457)">
        <path id="Path_72" data-name="Path 72" d="M250.235,830.6s.062-.042.157-.1.225-.134.355-.208.263-.143.364-.192.169-.081.169-.081-.062.042-.157.1-.225.134-.355.208-.263.142-.364.192S250.235,830.6,250.235,830.6Z" transform="translate(-250.235 -830.021)" fill="#f3f7f2"/>
      </g>
      <g id="Group_69" data-name="Group 69" transform="translate(19.883 28.028)">
        <path id="Path_73" data-name="Path 73" d="M257.386,830.371l-1.331-2.567.077-.038Z" transform="translate(-256.055 -827.765)" fill="#f3f7f2"/>
      </g>
      <g id="Group_70" data-name="Group 70" transform="translate(20.496 0.928)">
        <path id="Path_74" data-name="Path 74" d="M301.772,685.287q-2.4,1.978-4.89,3.844t-5.031,3.655q-1.271.895-2.555,1.771c-.857.582-1.71,1.169-2.575,1.741l-1.293.862-1.3.852c-.865.571-1.739,1.127-2.609,1.69l-2.624,1.666c-.88.548-1.755,1.1-2.638,1.643s-1.764,1.087-2.65,1.624-1.774,1.071-2.661,1.606q-2.668,1.594-5.355,3.156t-5.4,3.085h0l-.011.007h0l-.905.507.9-.511h0l.011-.007h0q2.7-1.537,5.381-3.11t5.34-3.181c.884-.539,1.772-1.073,2.653-1.618s1.764-1.087,2.642-1.636,1.753-1.1,2.63-1.655l2.615-1.678c.867-.566,1.739-1.126,2.6-1.7l1.3-.857,1.288-.868c.861-.575,1.712-1.166,2.566-1.752s1.7-1.182,2.545-1.782q2.532-1.8,5.009-3.675t4.865-3.86Z" transform="translate(-259.278 -685.107)" fill="#4d4d4d"/>
      </g>
      <g id="Group_71" data-name="Group 71" transform="translate(17.921 28.13)">
        <path id="Path_75" data-name="Path 75" d="M247.959,832.542a.131.131,0,0,0,.176.047l.033-.018c.45-.249.91-.5,1.656-.923a.131.131,0,0,0,.053-.173l-1.032-2.076a.132.132,0,0,0-.182-.056c-.688.387-1.251.7-1.67.932l-.171.094h0a.131.131,0,0,0-.05.182Z" transform="translate(-246.557 -829.132)" fill="#f3f7f2"/>
        <path id="Path_76" data-name="Path 76" d="M247.24,831.969h0a.328.328,0,0,1-.28-.159l-1.188-1.989a.326.326,0,0,1,.107-.444l.011-.006,0,0h0l.173-.1c.417-.23.979-.544,1.667-.93a.328.328,0,0,1,.16-.042.325.325,0,0,1,.293.181l1.032,2.075a.327.327,0,0,1-.132.43c-.747.42-1.207.675-1.657.924l-.032.017A.326.326,0,0,1,247.24,831.969Zm-1.1-2.291,1.122,1.879c.432-.239.877-.486,1.58-.881l-.975-1.961c-.663.372-1.206.674-1.613.9Z" transform="translate(-245.726 -828.3)" fill="#4d4d4d"/>
      </g>
      <g id="Group_72" data-name="Group 72" transform="translate(16.53 27.655)">
        <path id="Path_77" data-name="Path 77" d="M242.6,832.552h0a.488.488,0,0,0,.212-.657l-2.459-4.8a.488.488,0,0,0-.657-.212h0a.488.488,0,0,0-.212.657l2.459,4.8A.488.488,0,0,0,242.6,832.552Z" transform="translate(-239.238 -826.632)" fill="#f3f7f2"/>
        <path id="Path_78" data-name="Path 78" d="M241.548,831.968h0a.68.68,0,0,1-.608-.372l-2.46-4.8a.683.683,0,0,1,.3-.919.683.683,0,0,1,.92.3l2.459,4.8a.683.683,0,0,1-.3.92A.686.686,0,0,1,241.548,831.968Zm-2.46-5.779a.293.293,0,0,0-.26.426l2.459,4.8a.292.292,0,0,0,.261.16h0a.293.293,0,0,0,.26-.426l-2.46-4.8A.292.292,0,0,0,239.087,826.189Z" transform="translate(-238.404 -825.799)" fill="#4d4d4d"/>
      </g>
      <g id="Group_88" data-name="Group 88" transform="translate(0.719 30.298)">
        <g id="Group_73" data-name="Group 73" transform="translate(15.361)">
          <path id="Path_79" data-name="Path 79" d="M236.381,839.714l1,2.384-1.35-2.206Z" transform="translate(-236.034 -839.714)" fill="#4d4d4d"/>
        </g>
        <g id="Group_74" data-name="Group 74" transform="translate(14.264 0.562)">
          <path id="Path_80" data-name="Path 80" d="M230.606,842.675l1,2.384-1.35-2.206Z" transform="translate(-230.258 -842.675)" fill="#4d4d4d"/>
        </g>
        <g id="Group_75" data-name="Group 75" transform="translate(13.167 1.125)">
          <path id="Path_81" data-name="Path 81" d="M224.831,845.635l1,2.384-1.35-2.206Z" transform="translate(-224.483 -845.635)" fill="#4d4d4d"/>
        </g>
        <g id="Group_76" data-name="Group 76" transform="translate(12.069 1.686)">
          <path id="Path_82" data-name="Path 82" d="M219.051,848.588l1,2.384-1.35-2.206Z" transform="translate(-218.703 -848.588)" fill="#4d4d4d"/>
        </g>
        <g id="Group_77" data-name="Group 77" transform="translate(10.971 2.248)">
          <path id="Path_83" data-name="Path 83" d="M213.275,851.548l1,2.384-1.35-2.206Z" transform="translate(-212.928 -851.548)" fill="#4d4d4d"/>
        </g>
        <g id="Group_78" data-name="Group 78" transform="translate(9.876 2.809)">
          <path id="Path_84" data-name="Path 84" d="M207.507,854.5l1,2.385-1.349-2.207Z" transform="translate(-207.159 -854.504)" fill="#4d4d4d"/>
        </g>
        <g id="Group_79" data-name="Group 79" transform="translate(8.778 3.372)">
          <path id="Path_85" data-name="Path 85" d="M201.731,857.464l1,2.385-1.349-2.207Z" transform="translate(-201.384 -857.464)" fill="#4d4d4d"/>
        </g>
        <g id="Group_80" data-name="Group 80" transform="translate(7.681 3.933)">
          <path id="Path_86" data-name="Path 86" d="M195.952,860.417l1,2.384-1.35-2.206Z" transform="translate(-195.604 -860.417)" fill="#4d4d4d"/>
        </g>
        <g id="Group_81" data-name="Group 81" transform="translate(6.583 4.495)">
          <path id="Path_87" data-name="Path 87" d="M190.176,863.376l1,2.384-1.35-2.206Z" transform="translate(-189.829 -863.376)" fill="#4d4d4d"/>
        </g>
        <g id="Group_82" data-name="Group 82" transform="translate(5.486 5.057)">
          <path id="Path_88" data-name="Path 88" d="M184.4,866.337l1,2.384-1.35-2.206Z" transform="translate(-184.054 -866.337)" fill="#4d4d4d"/>
        </g>
        <g id="Group_83" data-name="Group 83" transform="translate(4.389 5.62)">
          <path id="Path_89" data-name="Path 89" d="M178.626,869.3l1,2.384-1.35-2.206Z" transform="translate(-178.278 -869.297)" fill="#4d4d4d"/>
        </g>
        <g id="Group_84" data-name="Group 84" transform="translate(3.291 6.181)">
          <path id="Path_90" data-name="Path 90" d="M172.846,872.25l1,2.384-1.35-2.206Z" transform="translate(-172.499 -872.25)" fill="#4d4d4d"/>
        </g>
        <g id="Group_85" data-name="Group 85" transform="translate(2.194 6.743)">
          <path id="Path_91" data-name="Path 91" d="M167.071,875.21l1,2.384-1.35-2.206Z" transform="translate(-166.723 -875.21)" fill="#4d4d4d"/>
        </g>
        <g id="Group_86" data-name="Group 86" transform="translate(1.097 7.305)">
          <path id="Path_92" data-name="Path 92" d="M161.3,878.17l1,2.384-1.35-2.206Z" transform="translate(-160.948 -878.17)" fill="#4d4d4d"/>
        </g>
        <g id="Group_87" data-name="Group 87" transform="translate(0 7.867)">
          <path id="Path_93" data-name="Path 93" d="M155.52,881.13l1,2.384-1.35-2.206Z" transform="translate(-155.173 -881.13)" fill="#4d4d4d"/>
        </g>
      </g>
    </g>
    <g id="Group_118" data-name="Group 118" transform="translate(2421 -83.219)">
      <g id="Group_90" data-name="Group 90" transform="translate(44.382 29.502)">
        <path id="Path_94" data-name="Path 94" d="M403,847.772l-16.734-8.57,1.176-2.3,16.734,8.57a.992.992,0,0,1,.431,1.335l-.271.53A.992.992,0,0,1,403,847.772Z" transform="translate(-386.002 -836.643)" fill="#f3f7f2"/>
        <path id="Path_95" data-name="Path 95" d="M402.33,846.956a1.189,1.189,0,0,1-.54-.131l-16.908-8.659,1.354-2.644,16.908,8.659a1.187,1.187,0,0,1,.516,1.6l-.271.53A1.183,1.183,0,0,1,402.33,846.956ZM385.407,838l16.56,8.481a.8.8,0,0,0,1.073-.346l.271-.53a.8.8,0,0,0-.346-1.073l-16.56-8.481Z" transform="translate(-384.882 -835.523)" fill="#4d4d4d"/>
      </g>
      <g id="Group_93" data-name="Group 93" transform="translate(0 0)">
        <g id="Group_91" data-name="Group 91" transform="translate(0.207 0.265)">
          <path id="Path_96" data-name="Path 96" d="M196.7,713.175l-.536-.3-.17-.094c-.471-.261-1.126-.625-1.936-1.081l-.751-.423-.012-.007c-7.368-4.166-25.9-14.956-38.95-25.222a4.366,4.366,0,0,1-1.45-2.064,4.23,4.23,0,0,1-.116-.417l-.441-1.954.533.444c3.294,2.727,7.3,5.725,11.913,8.913,11.169,7.719,23.276,14.774,29.5,18.3l.013.008.75.422.16.09c.744.418,1.348.755,1.791,1l.17.094.55.3Z" transform="translate(-152.337 -681.617)" fill="#f3f7f2"/>
        </g>
        <g id="Group_92" data-name="Group 92">
          <path id="Path_97" data-name="Path 97" d="M151.733,680.943l.144.12c3.3,2.73,7.31,5.732,11.925,8.922,11.174,7.723,23.287,14.782,29.518,18.3l0,0,.014.008.752.424.153.086c.693.39,1.313.736,1.795,1l.17.094.028.015.092.051.282.155-.567,1.1-.01.02-.287.559-.377-.208-.024-.013,0,0,0,0-.086-.047-.055-.031c-.624-.345-1.275-.709-1.936-1.081l-.75-.422,0,0-.015-.008c-7.359-4.161-25.884-14.946-38.922-25.2a4.2,4.2,0,0,1-1.393-1.983,4.066,4.066,0,0,1-.111-.4l-.329-1.459Zm-.369-.722a.117.117,0,0,0-.114.142l.477,2.115a4.425,4.425,0,0,0,.12.434,4.552,4.552,0,0,0,1.507,2.145c13,10.224,31.319,20.909,38.966,25.233l.011.007.758.427c.811.456,1.466.821,1.937,1.082l.144.08.027.014c.451.25.692.381.692.381l.449-.873.009-.018.721-1.4s-.2-.108-.575-.315l-.12-.067-.171-.095c-.443-.245-1.047-.582-1.79-1l-.9-.509-.011-.007C187.58,704.649,175.28,697.5,164,689.7c-4.242-2.933-8.34-5.956-11.9-8.9q-.332-.275-.659-.549a.114.114,0,0,0-.074-.028Z" transform="translate(-151.247 -680.221)" fill="#4d4d4d"/>
        </g>
      </g>
      <g id="Group_94" data-name="Group 94" transform="translate(0.882 3.069)">
        <path id="Path_98" data-name="Path 98" d="M155.888,696.379c3.137,2.524,6.385,4.9,9.687,7.207.824.577,1.656,1.143,2.489,1.709s1.669,1.125,2.506,1.683,1.682,1.105,2.522,1.658l2.538,1.634c.851.537,1.7,1.081,2.552,1.612s1.707,1.067,2.564,1.593q2.569,1.586,5.162,3.132,5.184,3.094,10.444,6.057l.01.006.011.007-.009-.006.905.507-.115.2-.9-.511-.009-.006-.011-.007.009.006q-5.25-2.986-10.42-6.11-2.584-1.563-5.149-3.157-1.283-.8-2.557-1.606c-.853-.535-1.7-1.083-2.545-1.625l-2.531-1.646c-.838-.558-1.682-1.107-2.515-1.671s-1.671-1.122-2.5-1.7-1.66-1.139-2.481-1.721C162.251,701.315,159.013,698.918,155.888,696.379Z" transform="translate(-155.888 -696.379)" fill="#4d4d4d"/>
      </g>
      <g id="Group_95" data-name="Group 95" transform="translate(43.74 29.04)">
        <path id="Path_99" data-name="Path 99" d="M381.5,835.442l1.074-2.348.15.075Z" transform="translate(-381.501 -833.094)" fill="#f3f7f2"/>
      </g>
      <g id="Group_96" data-name="Group 96" transform="translate(42.386 30.797)">
        <path id="Path_100" data-name="Path 100" d="M375.416,842.923s-.068-.031-.169-.08-.233-.12-.364-.192-.259-.148-.355-.208-.157-.1-.157-.1.068.031.169.081.233.12.364.192.26.149.355.208S375.416,842.923,375.416,842.923Z" transform="translate(-374.371 -842.341)" fill="#f3f7f2"/>
      </g>
      <g id="Group_97" data-name="Group 97" transform="translate(43.467 28.457)">
        <path id="Path_101" data-name="Path 101" d="M381.109,830.6s-.068-.031-.169-.08-.233-.121-.364-.192-.26-.149-.355-.208-.157-.1-.157-.1.068.031.169.081.233.12.364.192.26.149.355.208S381.109,830.6,381.109,830.6Z" transform="translate(-380.064 -830.021)" fill="#f3f7f2"/>
      </g>
      <g id="Group_98" data-name="Group 98" transform="translate(42.075 28.028)">
        <path id="Path_102" data-name="Path 102" d="M372.738,830.371l1.254-2.606.077.038Z" transform="translate(-372.738 -827.765)" fill="#f3f7f2"/>
      </g>
      <g id="Group_99" data-name="Group 99" transform="translate(0.3 0.928)">
        <path id="Path_103" data-name="Path 103" d="M152.978,685.107q2.387,1.986,4.865,3.86t5.009,3.675q1.266.9,2.545,1.782c.854.586,1.705,1.177,2.566,1.752l1.288.868,1.3.857c.862.575,1.733,1.135,2.6,1.7l2.615,1.678c.877.552,1.749,1.109,2.63,1.655s1.759,1.095,2.642,1.636,1.768,1.079,2.653,1.618q2.661,1.606,5.34,3.181t5.382,3.11h0l.011.007h0l.9.511-.905-.507h0l-.011-.007h0q-2.708-1.525-5.4-3.085t-5.355-3.156c-.887-.535-1.777-1.065-2.661-1.606s-1.769-1.078-2.65-1.624-1.759-1.1-2.638-1.643l-2.624-1.666c-.87-.562-1.744-1.119-2.609-1.69l-1.3-.852-1.293-.862c-.865-.572-1.718-1.158-2.575-1.741s-1.707-1.175-2.555-1.771q-2.543-1.789-5.031-3.655t-4.89-3.844Z" transform="translate(-152.828 -685.107)" fill="#4d4d4d"/>
      </g>
      <g id="Group_100" data-name="Group 100" transform="translate(41.841 28.13)">
        <path id="Path_104" data-name="Path 104" d="M374.461,832.542a.131.131,0,0,1-.176.047l-.033-.018c-.45-.249-.91-.5-1.656-.923a.131.131,0,0,1-.053-.173l1.032-2.076a.132.132,0,0,1,.182-.056c.688.387,1.251.7,1.67.932l.171.094h0a.131.131,0,0,1,.05.182Z" transform="translate(-372.334 -829.132)" fill="#f3f7f2"/>
        <path id="Path_105" data-name="Path 105" d="M373.516,831.969a.328.328,0,0,1-.158-.041l-.032-.018c-.451-.25-.911-.5-1.657-.924a.327.327,0,0,1-.133-.43l1.032-2.076a.324.324,0,0,1,.293-.181.328.328,0,0,1,.16.042c.688.386,1.251.7,1.669.931l.172.095.005,0h0a.326.326,0,0,1,.116.449L373.8,831.81A.328.328,0,0,1,373.516,831.969Zm-1.6-1.293c.7.4,1.148.642,1.58.881l1.122-1.879-.114-.062c-.408-.226-.951-.529-1.614-.9Z" transform="translate(-371.502 -828.3)" fill="#4d4d4d"/>
      </g>
      <g id="Group_101" data-name="Group 101" transform="translate(42.933 27.655)">
        <path id="Path_106" data-name="Path 106" d="M378.547,832.552h0a.488.488,0,0,1-.212-.657l2.46-4.8a.488.488,0,0,1,.657-.212h0a.488.488,0,0,1,.212.657l-2.46,4.8A.488.488,0,0,1,378.547,832.552Z" transform="translate(-378.086 -826.632)" fill="#f3f7f2"/>
        <path id="Path_107" data-name="Path 107" d="M377.936,831.968a.684.684,0,0,1-.65-.474.678.678,0,0,1,.042-.521l2.459-4.8a.683.683,0,1,1,1.216.623l-2.459,4.8A.68.68,0,0,1,377.936,831.968Zm2.46-5.779a.293.293,0,0,0-.261.159l-2.459,4.8a.293.293,0,0,0,.127.394.3.3,0,0,0,.394-.127l2.459-4.8a.293.293,0,0,0-.26-.426Z" transform="translate(-377.253 -825.799)" fill="#4d4d4d"/>
      </g>
      <g id="Group_117" data-name="Group 117" transform="translate(45.686 30.387)">
        <g id="Group_102" data-name="Group 102">
          <path id="Path_108" data-name="Path 108" d="M391.746,842.39l1.35-2.206-1,2.384Z" transform="translate(-391.746 -840.183)" fill="#4d4d4d"/>
        </g>
        <g id="Group_103" data-name="Group 103" transform="translate(1.097 0.562)">
          <path id="Path_109" data-name="Path 109" d="M397.521,845.35l1.35-2.206-1,2.384Z" transform="translate(-397.521 -843.143)" fill="#4d4d4d"/>
        </g>
        <g id="Group_104" data-name="Group 104" transform="translate(2.194 1.125)">
          <path id="Path_110" data-name="Path 110" d="M403.3,848.309l1.35-2.206-1,2.384Z" transform="translate(-403.297 -846.103)" fill="#4d4d4d"/>
        </g>
        <g id="Group_105" data-name="Group 105" transform="translate(3.292 1.686)">
          <path id="Path_111" data-name="Path 111" d="M409.077,851.263l1.35-2.206-1,2.384Z" transform="translate(-409.077 -849.057)" fill="#4d4d4d"/>
        </g>
        <g id="Group_106" data-name="Group 106" transform="translate(4.389 2.248)">
          <path id="Path_112" data-name="Path 112" d="M414.852,854.223l1.35-2.206-1,2.384Z" transform="translate(-414.852 -852.017)" fill="#4d4d4d"/>
        </g>
        <g id="Group_107" data-name="Group 107" transform="translate(5.486 2.809)">
          <path id="Path_113" data-name="Path 113" d="M420.627,857.179l1.349-2.207-1,2.385Z" transform="translate(-420.627 -854.972)" fill="#4d4d4d"/>
        </g>
        <g id="Group_108" data-name="Group 108" transform="translate(6.583 3.372)">
          <path id="Path_114" data-name="Path 114" d="M426.4,860.139l1.349-2.207-1,2.385Z" transform="translate(-426.402 -857.932)" fill="#4d4d4d"/>
        </g>
        <g id="Group_109" data-name="Group 109" transform="translate(7.68 3.933)">
          <path id="Path_115" data-name="Path 115" d="M432.175,863.091l1.35-2.206-1,2.384Z" transform="translate(-432.175 -860.885)" fill="#4d4d4d"/>
        </g>
        <g id="Group_110" data-name="Group 110" transform="translate(8.777 4.495)">
          <path id="Path_116" data-name="Path 116" d="M437.951,866.051l1.35-2.206-1,2.384Z" transform="translate(-437.951 -863.845)" fill="#4d4d4d"/>
        </g>
        <g id="Group_111" data-name="Group 111" transform="translate(9.874 5.057)">
          <path id="Path_117" data-name="Path 117" d="M443.726,869.011l1.35-2.206-1,2.384Z" transform="translate(-443.726 -866.805)" fill="#4d4d4d"/>
        </g>
        <g id="Group_112" data-name="Group 112" transform="translate(10.971 5.62)">
          <path id="Path_118" data-name="Path 118" d="M449.5,871.972l1.35-2.206-1,2.384Z" transform="translate(-449.501 -869.765)" fill="#4d4d4d"/>
        </g>
        <g id="Group_113" data-name="Group 113" transform="translate(12.069 6.181)">
          <path id="Path_119" data-name="Path 119" d="M455.281,874.925l1.35-2.206-1,2.384Z" transform="translate(-455.281 -872.719)" fill="#4d4d4d"/>
        </g>
        <g id="Group_114" data-name="Group 114" transform="translate(13.167 6.743)">
          <path id="Path_120" data-name="Path 120" d="M461.056,877.885l1.35-2.206-1,2.384Z" transform="translate(-461.056 -875.679)" fill="#4d4d4d"/>
        </g>
        <g id="Group_115" data-name="Group 115" transform="translate(14.264 7.305)">
          <path id="Path_121" data-name="Path 121" d="M466.832,880.845l1.35-2.206-1,2.384Z" transform="translate(-466.832 -878.639)" fill="#4d4d4d"/>
        </g>
        <g id="Group_116" data-name="Group 116" transform="translate(15.361 7.867)">
          <path id="Path_122" data-name="Path 122" d="M472.607,883.8l1.35-2.206-1,2.384Z" transform="translate(-472.607 -881.599)" fill="#4d4d4d"/>
        </g>
      </g>
    </g>
    <g id="Group_119" data-name="Group 119" transform="translate(2431.291 -84)">
      <circle id="Ellipse_2" data-name="Ellipse 2" cx="20.968" cy="20.968" r="20.968" transform="translate(0.219 0.219)" fill="#f3f7f2"/>
      <path id="Path_123" data-name="Path 123" d="M226.608,718.484A21.187,21.187,0,1,1,247.795,697.3,21.211,21.211,0,0,1,226.608,718.484Zm0-41.936A20.749,20.749,0,1,0,247.357,697.3,20.773,20.773,0,0,0,226.608,676.547Z" transform="translate(-205.421 -676.11)" fill="#f3f7f2"/>
    </g>
    <g id="Group_120" data-name="Group 120" transform="translate(2431.948 -83.344)">
      <circle id="Ellipse_3" data-name="Ellipse 3" cx="20.312" cy="20.312" r="20.312" transform="translate(0.219 0.219)" fill="#f3f7f2"/>
      <path id="Path_124" data-name="Path 124" d="M229.406,720.625a20.531,20.531,0,1,1,20.531-20.531A20.554,20.554,0,0,1,229.406,720.625Zm0-40.624A20.093,20.093,0,1,0,249.5,700.095,20.116,20.116,0,0,0,229.406,680Z" transform="translate(-208.875 -679.564)" fill="#4d4d4d"/>
    </g>
    <g id="Group_121" data-name="Group 121" transform="translate(2432.604 -82.688)">
      <circle id="Ellipse_4" data-name="Ellipse 4" cx="19.656" cy="19.656" r="19.656" transform="translate(0.219 0.219)" fill="#f3f7f2"/>
      <path id="Path_125" data-name="Path 125" d="M232.2,722.768a19.874,19.874,0,1,1,19.875-19.875A19.9,19.9,0,0,1,232.2,722.768Zm0-39.311a19.437,19.437,0,1,0,19.437,19.437A19.459,19.459,0,0,0,232.2,683.456Z" transform="translate(-212.329 -683.019)" fill="#4d4d4d"/>
    </g>
    <g id="Group_159" data-name="Group 159" transform="translate(2433.591 -81.701)">
      <g id="Group_122" data-name="Group 122" transform="translate(18.887 18.112)">
        <path id="Path_126" data-name="Path 126" d="M316.951,783.56l18.887.775-18.887.775Z" transform="translate(-316.951 -783.56)" fill="#4d4d4d"/>
      </g>
      <g id="Group_123" data-name="Group 123" transform="translate(18.753 15.608)">
        <path id="Path_127" data-name="Path 127" d="M316.243,772.892l18.735-2.516-18.466,4.043Z" transform="translate(-316.243 -770.376)" fill="#4d4d4d"/>
      </g>
      <g id="Group_124" data-name="Group 124" transform="translate(18.622 12.427)">
        <path id="Path_128" data-name="Path 128" d="M315.556,759.366l18.013-5.731-17.483,7.188Z" transform="translate(-315.556 -753.635)" fill="#4d4d4d"/>
      </g>
      <g id="Group_125" data-name="Group 125" transform="translate(18.5 9.444)">
        <path id="Path_129" data-name="Path 129" d="M314.911,746.7l16.745-8.772-15.969,10.115Z" transform="translate(-314.911 -737.928)" fill="#4d4d4d"/>
      </g>
      <g id="Group_126" data-name="Group 126" transform="translate(18.389 6.747)">
        <path id="Path_130" data-name="Path 130" d="M314.328,735.278l14.967-11.547-13.97,12.734Z" transform="translate(-314.328 -723.731)" fill="#4d4d4d"/>
      </g>
      <g id="Group_127" data-name="Group 127" transform="translate(18.293 4.419)">
        <path id="Path_131" data-name="Path 131" d="M313.825,725.446l12.734-13.97-11.547,14.967Z" transform="translate(-313.825 -711.476)" fill="#4d4d4d"/>
      </g>
      <g id="Group_128" data-name="Group 128" transform="translate(18.216 2.53)">
        <path id="Path_132" data-name="Path 132" d="M313.417,717.5l10.115-15.969L314.76,718.28Z" transform="translate(-313.417 -701.536)" fill="#4d4d4d"/>
      </g>
      <g id="Group_129" data-name="Group 129" transform="translate(18.159 1.139)">
        <path id="Path_133" data-name="Path 133" d="M313.116,711.694l7.188-17.483-5.731,18.013Z" transform="translate(-313.116 -694.211)" fill="#4d4d4d"/>
      </g>
      <g id="Group_130" data-name="Group 130" transform="translate(18.124 0.287)">
        <path id="Path_134" data-name="Path 134" d="M312.932,708.191l4.043-18.466-2.516,18.735Z" transform="translate(-312.932 -689.726)" fill="#4d4d4d"/>
      </g>
      <g id="Group_131" data-name="Group 131" transform="translate(18.112 0)">
        <path id="Path_135" data-name="Path 135" d="M312.87,707.1l.775-18.887.775,18.887Z" transform="translate(-312.87 -688.215)" fill="#4d4d4d"/>
      </g>
      <g id="Group_132" data-name="Group 132" transform="translate(15.608 0.287)">
        <path id="Path_136" data-name="Path 136" d="M302.2,708.461l-2.516-18.735,4.043,18.466Z" transform="translate(-299.686 -689.726)" fill="#4d4d4d"/>
      </g>
      <g id="Group_133" data-name="Group 133" transform="translate(12.427 1.139)">
        <path id="Path_137" data-name="Path 137" d="M288.677,712.225l-5.731-18.013,7.188,17.483Z" transform="translate(-282.946 -694.211)" fill="#4d4d4d"/>
      </g>
      <g id="Group_134" data-name="Group 134" transform="translate(9.444 2.53)">
        <path id="Path_138" data-name="Path 138" d="M276.011,718.28l-8.772-16.745L277.354,717.5Z" transform="translate(-267.239 -701.536)" fill="#4d4d4d"/>
      </g>
      <g id="Group_135" data-name="Group 135" transform="translate(6.747 4.419)">
        <path id="Path_139" data-name="Path 139" d="M264.588,726.443l-11.547-14.967,12.734,13.97Z" transform="translate(-253.042 -711.476)" fill="#4d4d4d"/>
      </g>
      <g id="Group_136" data-name="Group 136" transform="translate(4.419 6.747)">
        <path id="Path_140" data-name="Path 140" d="M254.757,736.466l-13.97-12.734,14.967,11.547Z" transform="translate(-240.787 -723.731)" fill="#4d4d4d"/>
      </g>
      <g id="Group_137" data-name="Group 137" transform="translate(2.53 9.444)">
        <path id="Path_141" data-name="Path 141" d="M246.816,748.043l-15.969-10.115,16.745,8.772Z" transform="translate(-230.846 -737.928)" fill="#4d4d4d"/>
      </g>
      <g id="Group_138" data-name="Group 138" transform="translate(1.139 12.427)">
        <path id="Path_142" data-name="Path 142" d="M241,760.823l-17.483-7.188,18.013,5.731Z" transform="translate(-223.522 -753.635)" fill="#4d4d4d"/>
      </g>
      <g id="Group_139" data-name="Group 139" transform="translate(0.287 15.608)">
        <path id="Path_143" data-name="Path 143" d="M237.5,774.419l-18.466-4.043,18.735,2.516Z" transform="translate(-219.036 -770.376)" fill="#4d4d4d"/>
      </g>
      <g id="Group_140" data-name="Group 140" transform="translate(0 18.112)">
        <path id="Path_144" data-name="Path 144" d="M236.413,785.11l-18.887-.775,18.887-.775Z" transform="translate(-217.526 -783.56)" fill="#4d4d4d"/>
      </g>
      <g id="Group_141" data-name="Group 141" transform="translate(0.287 18.124)">
        <path id="Path_145" data-name="Path 145" d="M237.771,785.149l-18.735,2.516,18.466-4.043Z" transform="translate(-219.036 -783.622)" fill="#4d4d4d"/>
      </g>
      <g id="Group_142" data-name="Group 142" transform="translate(1.139 18.159)">
        <path id="Path_146" data-name="Path 146" d="M241.535,785.263l-18.013,5.731L241,783.806Z" transform="translate(-223.522 -783.806)" fill="#4d4d4d"/>
      </g>
      <g id="Group_143" data-name="Group 143" transform="translate(2.53 18.216)">
        <path id="Path_147" data-name="Path 147" d="M247.591,785.449l-16.745,8.772,15.969-10.115Z" transform="translate(-230.846 -784.106)" fill="#4d4d4d"/>
      </g>
      <g id="Group_144" data-name="Group 144" transform="translate(4.419 18.293)">
        <path id="Path_148" data-name="Path 148" d="M255.754,785.7l-14.967,11.547,13.97-12.734Z" transform="translate(-240.787 -784.514)" fill="#4d4d4d"/>
      </g>
      <g id="Group_145" data-name="Group 145" transform="translate(6.747 18.389)">
        <path id="Path_149" data-name="Path 149" d="M265.776,786.014l-12.734,13.97,11.547-14.967Z" transform="translate(-253.042 -785.017)" fill="#4d4d4d"/>
      </g>
      <g id="Group_146" data-name="Group 146" transform="translate(9.444 18.5)">
        <path id="Path_150" data-name="Path 150" d="M277.354,786.375l-10.115,15.969,8.772-16.745Z" transform="translate(-267.239 -785.6)" fill="#4d4d4d"/>
      </g>
      <g id="Group_147" data-name="Group 147" transform="translate(12.427 18.622)">
        <path id="Path_151" data-name="Path 151" d="M290.134,786.775l-7.188,17.483,5.731-18.013Z" transform="translate(-282.946 -786.245)" fill="#4d4d4d"/>
      </g>
      <g id="Group_148" data-name="Group 148" transform="translate(15.608 18.753)">
        <path id="Path_152" data-name="Path 152" d="M303.73,787.2l-4.043,18.466,2.516-18.735Z" transform="translate(-299.686 -786.932)" fill="#4d4d4d"/>
      </g>
      <g id="Group_149" data-name="Group 149" transform="translate(18.112 18.887)">
        <path id="Path_153" data-name="Path 153" d="M314.421,787.641l-.775,18.887-.775-18.887Z" transform="translate(-312.87 -787.641)" fill="#4d4d4d"/>
      </g>
      <g id="Group_150" data-name="Group 150" transform="translate(18.124 18.753)">
        <path id="Path_154" data-name="Path 154" d="M314.459,786.932l2.516,18.735L312.932,787.2Z" transform="translate(-312.932 -786.932)" fill="#4d4d4d"/>
      </g>
      <g id="Group_151" data-name="Group 151" transform="translate(18.159 18.622)">
        <path id="Path_155" data-name="Path 155" d="M314.573,786.245l5.731,18.013-7.188-17.483Z" transform="translate(-313.116 -786.245)" fill="#4d4d4d"/>
      </g>
      <g id="Group_152" data-name="Group 152" transform="translate(18.216 18.5)">
        <path id="Path_156" data-name="Path 156" d="M314.76,785.6l8.772,16.745-10.115-15.969Z" transform="translate(-313.417 -785.6)" fill="#4d4d4d"/>
      </g>
      <g id="Group_153" data-name="Group 153" transform="translate(18.293 18.389)">
        <path id="Path_157" data-name="Path 157" d="M315.013,785.017l11.547,14.967-12.734-13.97Z" transform="translate(-313.825 -785.017)" fill="#4d4d4d"/>
      </g>
      <g id="Group_154" data-name="Group 154" transform="translate(18.389 18.293)">
        <path id="Path_158" data-name="Path 158" d="M315.325,784.514l13.97,12.734L314.328,785.7Z" transform="translate(-314.328 -784.514)" fill="#4d4d4d"/>
      </g>
      <g id="Group_155" data-name="Group 155" transform="translate(18.5 18.216)">
        <path id="Path_159" data-name="Path 159" d="M315.686,784.106l15.969,10.115-16.745-8.772Z" transform="translate(-314.911 -784.106)" fill="#4d4d4d"/>
      </g>
      <g id="Group_156" data-name="Group 156" transform="translate(18.622 18.159)">
        <path id="Path_160" data-name="Path 160" d="M316.086,783.806l17.483,7.188-18.013-5.731Z" transform="translate(-315.556 -783.806)" fill="#4d4d4d"/>
      </g>
      <g id="Group_157" data-name="Group 157" transform="translate(18.753 18.124)">
        <path id="Path_161" data-name="Path 161" d="M316.512,783.622l18.466,4.043-18.735-2.516Z" transform="translate(-316.243 -783.622)" fill="#4d4d4d"/>
      </g>
      <g id="Group_158" data-name="Group 158" transform="translate(18.887 18.112)">
        <path id="Path_162" data-name="Path 162" d="M316.951,783.56l18.887.775-18.887.775Z" transform="translate(-316.951 -783.56)" fill="#4d4d4d"/>
      </g>
    </g>
    <g id="Group_160" data-name="Group 160" transform="translate(2438.359 -76.932)">
      <path id="Path_163" data-name="Path 163" d="M273.5,730.875a13.313,13.313,0,1,1-13.313-13.312A13.313,13.313,0,0,1,273.5,730.875ZM262.534,743.4a6.326,6.326,0,0,0,0-11.744Zm-14.26-16.784a12.647,12.647,0,0,0,6.068,15.471Zm11.91-9.056-.172,0a6.656,6.656,0,0,0,.172,13.31,6.656,6.656,0,0,1,.172,13.31,13.312,13.312,0,0,0-.172-26.622Zm0,17.972a2,2,0,1,0,2,2A2,2,0,0,0,260.185,735.534Zm0,4.327a2.33,2.33,0,1,0,0-4.659Zm0-17.639a2,2,0,1,0,2,2A2,2,0,0,0,260.185,722.221Zm0-.333a2.33,2.33,0,1,0,0,4.659Zm11.91,13.242a12.648,12.648,0,0,0-6.068-15.471Zm-14.26-16.784a6.326,6.326,0,0,0,0,11.744Z" transform="translate(-246.065 -716.755)" fill="#4d4d4d"/>
      <path id="Path_164" data-name="Path 164" d="M256.744,741.554a14.119,14.119,0,0,1,0-28.239h0a14.119,14.119,0,1,1,0,28.239Zm-5.776-3.029a12.426,12.426,0,0,0,5.776,1.416h.152v0a5.744,5.744,0,0,0,2.02-.421l-.121-.3a5.519,5.519,0,0,0,0-10.246l.123-.308a5.817,5.817,0,0,0-2.173-.418,7.465,7.465,0,0,1-6.15-11.693,12.578,12.578,0,0,0-5.627,6.678l.627.225a11.841,11.841,0,0,0,5.683,14.484Zm3.6-12.315a5.82,5.82,0,0,0,2.173.419,7.465,7.465,0,0,1,6.162,11.676,12.641,12.641,0,0,0,5.61-6.663l-.621-.223a11.841,11.841,0,0,0-5.683-14.484l.308-.59a12.429,12.429,0,0,0-5.777-1.416l-.138,0h-.016a5.746,5.746,0,0,0-2.017.42l.122.3a5.519,5.519,0,0,0,0,10.246Zm2.173,11.018v-.333a2.8,2.8,0,1,1,0-5.607v-.333a3.136,3.136,0,1,1,0,6.273Zm0-4.327a1.19,1.19,0,1,0,1.19,1.19A1.191,1.191,0,0,0,256.744,732.9Zm0-8.986a3.136,3.136,0,1,1,0-6.273v.333a2.8,2.8,0,1,1,0,5.607Zm0-4.327a1.19,1.19,0,1,0,1.19,1.19A1.191,1.191,0,0,0,256.744,719.588Z" transform="translate(-242.625 -713.315)" fill="#f3f7f2"/>
    </g>
    <g id="Group_163" data-name="Group 163" transform="translate(2434.216 -81.076)">
      <g id="Group_161" data-name="Group 161" transform="translate(0 0)">
        <circle id="Ellipse_5" data-name="Ellipse 5" cx="13.512" cy="13.512" r="13.512" transform="translate(0 12.637) rotate(-27.881)" fill="#f3f7f2"/>
      </g>
      <g id="Group_162" data-name="Group 162" transform="translate(4.551 4.55)">
        <path id="Path_165" data-name="Path 165" d="M258.482,715.858a13.313,13.313,0,1,1-13.312,13.313,13.312,13.312,0,0,1,13.313-13.312Zm0-.4a13.712,13.712,0,1,0,13.712,13.712,13.727,13.727,0,0,0-13.712-13.712Z" transform="translate(-244.77 -715.459)" fill="#4d4d4d"/>
      </g>
    </g>
    <g id="Group_164" data-name="Group 164" transform="translate(2454.828 -62.029)">
      <path id="Path_166" data-name="Path 166" d="M329.32,791.768l.158.06a4.081,4.081,0,0,1,.441.185c.092.047.2.093.308.154l.35.2.382.26c.128.1.261.209.4.324a6.193,6.193,0,0,1,.789.846,5.934,5.934,0,0,1,.684,1.1l.142.31c.043.106.081.215.122.324.02.055.042.109.06.165l.049.169c.03.114.068.226.091.343l.07.351c.025.117.032.237.049.356a3.206,3.206,0,0,1,.032.359l.015.368a7.1,7.1,0,0,1-.165,1.421c-.023.116-.061.229-.091.343l-.049.169c-.018.056-.04.11-.06.165-.041.109-.08.218-.122.324l-.143.31a5.923,5.923,0,0,1-.684,1.1,6.19,6.19,0,0,1-.789.846c-.137.116-.27.224-.4.324l-.382.26-.35.2c-.109.062-.215.107-.307.154a4.05,4.05,0,0,1-.442.185l-.158.06.151-.077c.1-.052.245-.118.419-.226.087-.054.188-.106.29-.175l.327-.227.352-.283c.117-.107.241-.219.367-.338a6.87,6.87,0,0,0,.72-.855,6.342,6.342,0,0,0,.619-1.077,6.507,6.507,0,0,0,.416-1.256,6.361,6.361,0,0,0,0-2.714,6.466,6.466,0,0,0-.416-1.256,6.323,6.323,0,0,0-.618-1.077,6.843,6.843,0,0,0-.72-.855c-.126-.12-.25-.231-.367-.338l-.352-.283-.327-.227c-.1-.069-.2-.121-.289-.175-.174-.108-.323-.175-.42-.226Z" transform="translate(-329.32 -791.768)" fill="#e80000"/>
    </g>
    <g id="Group_165" data-name="Group 165" transform="translate(2439.68 -67.069)">
      <path id="Path_167" data-name="Path 167" d="M256.538,780.707l-.7-.35c-.218-.119-.475-.279-.773-.46-.145-.1-.294-.206-.454-.317l-.245-.174c-.082-.061-.161-.131-.244-.2-.164-.138-.342-.273-.513-.43l-.519-.495c-.171-.177-.339-.367-.514-.557a3.687,3.687,0,0,1-.252-.3l-.248-.314-.125-.159-.116-.168-.233-.341c-.164-.224-.3-.473-.439-.717s-.266-.5-.394-.758-.235-.524-.345-.789-.2-.541-.285-.813-.159-.549-.227-.824c-.032-.138-.072-.273-.1-.411l-.069-.413-.067-.408q-.019-.2-.038-.405a7.222,7.222,0,0,1-.052-.791c0-.259-.014-.512,0-.758a11.311,11.311,0,0,1,.123-1.38,11.464,11.464,0,0,1,.483-2.008c.08-.236.152-.417.2-.541l.077-.189-.056.2c-.037.128-.085.317-.145.556a14.028,14.028,0,0,0-.332,2.013c-.038.42-.057.874-.053,1.356,0,.241.024.487.035.739.01.126.007.254.027.381l.046.387.047.393.076.394.076.4c.025.134.065.265.1.4.068.266.132.536.227.8s.169.531.282.786.2.521.328.768.233.5.376.738a13.047,13.047,0,0,0,.859,1.364l.233.312c.078.1.151.207.235.3.164.192.32.384.479.564l.486.506c.158.163.325.3.478.45.078.071.152.143.229.208l.229.186c.149.121.289.239.424.345.28.2.518.379.725.516Z" transform="translate(-249.582 -765.236)" fill="#e80000"/>
    </g>
    <g id="Group_166" data-name="Group 166" transform="translate(2445.789 -76.159)">
      <path id="Path_168" data-name="Path 168" d="M301.881,730.875a13.31,13.31,0,0,1-13.141,13.31,6.656,6.656,0,0,0-.172-13.31,6.656,6.656,0,0,1-.172-13.31l.172,0A13.312,13.312,0,0,1,301.881,730.875Z" transform="translate(-281.879 -717.529)" fill="#e80000"/>
      <path id="Path_169" data-name="Path 169" d="M288.6,744.076v-.067a6.623,6.623,0,0,0-.171-13.243,6.689,6.689,0,0,1-.173-13.377h.016l.157,0a13.345,13.345,0,0,1,.172,26.689Zm-.172-26.622-.156,0h-.015a6.623,6.623,0,0,0,.171,13.243,6.69,6.69,0,0,1,1.352,13.242,13.279,13.279,0,0,0-1.352-26.488Z" transform="translate(-281.737 -717.387)" fill="#e80000"/>
    </g>
    <g id="Group_167" data-name="Group 167" transform="translate(2450.481 -58.154)">
      <circle id="Ellipse_6" data-name="Ellipse 6" cx="1.997" cy="1.997" r="1.997" transform="translate(0 0)" fill="#e80000"/>
    </g>
    <g id="Group_168" data-name="Group 168" transform="translate(2452.478 -58.487)">
      <path id="Path_170" data-name="Path 170" d="M316.951,810.416h.082a1.583,1.583,0,0,1,.232.01l.166.021.192.043c.069.017.138.044.214.068s.149.066.228.1a2.42,2.42,0,0,1,.466.315,2.206,2.206,0,0,1,.418.471,2.492,2.492,0,0,1,.289.611,2.289,2.289,0,0,1,0,1.381,2.488,2.488,0,0,1-.289.611,2.207,2.207,0,0,1-.418.471,2.417,2.417,0,0,1-.466.315c-.08.035-.154.074-.229.1s-.146.051-.214.068l-.192.043-.166.021a1.566,1.566,0,0,1-.233.01h-.082l.082-.008a1.974,1.974,0,0,0,.23-.028l.162-.031.186-.054c.066-.021.133-.052.2-.08s.142-.07.217-.107a2.339,2.339,0,0,0,.437-.321,2.433,2.433,0,0,0,.386-.462,2.373,2.373,0,0,0,.267-.583,2.365,2.365,0,0,0,0-1.31,2.364,2.364,0,0,0-.267-.583,2.422,2.422,0,0,0-.386-.462,2.341,2.341,0,0,0-.437-.321c-.076-.037-.146-.077-.217-.107s-.139-.059-.2-.08l-.186-.054-.161-.031a1.943,1.943,0,0,0-.23-.029Z" transform="translate(-316.951 -810.416)" fill="#e80000"/>
    </g>
    <g id="Group_169" data-name="Group 169" transform="translate(2450.481 -71.466)">
      <circle id="Ellipse_7" data-name="Ellipse 7" cx="1.997" cy="1.997" r="1.997" transform="translate(0 0)" fill="#f3f7f2"/>
    </g>
    <g id="Group_170" data-name="Group 170" transform="translate(2450.082 -71.799)">
      <path id="Path_171" data-name="Path 171" d="M306.734,745h-.082a1.586,1.586,0,0,1-.232-.01l-.166-.021-.192-.043c-.068-.017-.139-.044-.214-.068s-.149-.066-.229-.1a2.414,2.414,0,0,1-.466-.315,2.215,2.215,0,0,1-.418-.471,2.487,2.487,0,0,1-.289-.611,2.293,2.293,0,0,1,0-1.381,2.486,2.486,0,0,1,.289-.611,2.208,2.208,0,0,1,.418-.471,2.426,2.426,0,0,1,.466-.315c.08-.035.154-.075.229-.1s.146-.051.214-.068l.192-.043.166-.021a1.619,1.619,0,0,1,.233-.01h.082l-.082.008a1.963,1.963,0,0,0-.23.029l-.161.031-.186.054c-.066.021-.132.052-.2.08s-.142.07-.217.107a2.341,2.341,0,0,0-.437.321,2.431,2.431,0,0,0-.386.462,2.369,2.369,0,0,0-.267.583,2.362,2.362,0,0,0,0,1.31,2.37,2.37,0,0,0,.267.583,2.425,2.425,0,0,0,.386.462,2.331,2.331,0,0,0,.437.321c.076.037.146.077.217.107s.139.059.2.08l.186.054.161.031a1.967,1.967,0,0,0,.23.029Z" transform="translate(-304.338 -740.337)" fill="#f3f7f2"/>
    </g>
    <g id="Group_171" data-name="Group 171" transform="translate(2458.32 -74.028)">
      <path id="Path_172" data-name="Path 172" d="M347.7,728.6l.69.362c.215.122.468.288.765.47.143.1.291.208.45.321l.242.177c.081.063.159.132.241.2.161.14.338.277.506.435l.514.5c.169.177.336.367.51.557a3.722,3.722,0,0,1,.249.3l.245.314.124.159.115.168.231.34c.162.224.292.472.435.714s.264.5.391.755.233.521.343.786.2.538.284.809.159.546.227.819c.032.137.072.272.1.409l.07.411.069.405.04.4a7.4,7.4,0,0,1,.055.787c0,.258.017.51.01.755a11.71,11.71,0,0,1-.112,1.376,12.118,12.118,0,0,1-.458,2.009c-.076.237-.144.419-.191.544l-.074.19.06-.195c.039-.127.091-.315.155-.554a13.35,13.35,0,0,0,.421-3.373c0-.241-.021-.489-.03-.742-.009-.126-.006-.255-.024-.383l-.045-.389q-.022-.2-.045-.4l-.074-.4-.075-.4c-.025-.135-.065-.266-.1-.4-.068-.267-.131-.538-.227-.8s-.169-.534-.282-.79-.2-.523-.331-.771-.235-.506-.379-.742a12.834,12.834,0,0,0-.869-1.368l-.236-.312c-.078-.1-.153-.207-.237-.3-.165-.192-.323-.384-.484-.564l-.491-.5c-.161-.161-.33-.3-.485-.445-.079-.07-.154-.141-.232-.206l-.232-.184c-.151-.12-.292-.237-.429-.341-.283-.194-.525-.372-.733-.506Z" transform="translate(-347.705 -728.603)" fill="#f3f7f2"/>
    </g>
    <g id="Group_172" data-name="Group 172" transform="translate(2446.022 -75.342)">
      <path id="Path_173" data-name="Path 173" d="M287.072,733.433l-.158-.062a4.113,4.113,0,0,1-.439-.189c-.092-.047-.2-.094-.306-.156l-.348-.206-.379-.263c-.127-.1-.259-.211-.394-.327a6.568,6.568,0,0,1-.781-.848,5.85,5.85,0,0,1-.68-1.1l-.141-.309c-.042-.106-.08-.214-.121-.323-.019-.054-.041-.108-.059-.164l-.048-.168c-.03-.113-.068-.225-.091-.341a6.256,6.256,0,0,1,0-2.841c.023-.116.061-.228.09-.341l.048-.168c.018-.055.04-.109.059-.164.041-.108.079-.217.121-.323l.141-.309a5.966,5.966,0,0,1,.678-1.1,6.229,6.229,0,0,1,.782-.848c.136-.116.268-.225.395-.326l.379-.263.348-.206c.108-.062.213-.108.305-.156a4.117,4.117,0,0,1,.44-.189l.157-.062-.152.075c-.1.051-.246.115-.422.222-.088.053-.189.1-.292.173l-.33.225-.355.281c-.118.107-.244.217-.37.337a6.8,6.8,0,0,0-.727.854,6.3,6.3,0,0,0-.625,1.079,6.5,6.5,0,0,0-.421,1.262,6.345,6.345,0,0,0,0,2.728,6.467,6.467,0,0,0,1.772,3.2c.127.119.253.229.371.336l.355.281.33.225c.1.068.2.12.291.173.175.107.324.172.422.222Z" transform="translate(-282.965 -721.689)" fill="#f3f7f2"/>
    </g>
    <g id="Group_4932" data-name="Group 4932" transform="translate(613.644 -403.252)">
      <path id="Path_13932" data-name="Path 13932" d="M1875.464,350.063a21.008,21.008,0,0,1-3.873-.336,10.481,10.481,0,0,1-2.944-.945l1.056-4.961a13.9,13.9,0,0,0,2.977,1.089,13.231,13.231,0,0,0,3.2.416,8.667,8.667,0,0,0,2.465-.272,1.562,1.562,0,0,0,1.088-1.233,1.385,1.385,0,0,0,.031-.319q0-.8-.992-1.185t-2.946-1.056a8.848,8.848,0,0,1-3.295-1.872,3.84,3.84,0,0,1-1.12-2.864c0-.235.01-.475.031-.72a5.561,5.561,0,0,1,.129-.783,7.035,7.035,0,0,1,3.024-4.626q2.383-1.584,6.9-1.584a21.026,21.026,0,0,1,3.441.289,17.76,17.76,0,0,1,2.767.639l-1.055,4.992a12.706,12.706,0,0,0-2.689-.863,13.269,13.269,0,0,0-2.528-.256,11.747,11.747,0,0,0-2.447.224,1.5,1.5,0,0,0-1.265,1.152.954.954,0,0,0-.032.289c0,.4.266.714.8.928s1.419.512,2.656.895a8.432,8.432,0,0,1,3.872,2.049,4.181,4.181,0,0,1,1.089,2.88,6.14,6.14,0,0,1-.064.865q-.064.449-.16.928a7.759,7.759,0,0,1-1.488,3.266,7.105,7.105,0,0,1-3.184,2.191A15.72,15.72,0,0,1,1875.464,350.063Z" fill="#e80000"/>
      <path id="Path_13933" data-name="Path 13933" d="M1886.964,349.687l-.448-20.611h5.888l.031,10.913,3.938-7.809.64-3.1h4.928l.833,10.946,4.768-10.946h5.89l-9.123,20.611h-5.281l-.863-10.658-5.6,10.658Z" transform="translate(3.799 0.056)" fill="#e80000"/>
      <path id="Path_13934" data-name="Path 13934" d="M1915.48,350.063a10.3,10.3,0,0,1-6.3-1.745q-2.339-1.744-2.337-5.552a16.013,16.013,0,0,1,.383-3.264,17.182,17.182,0,0,1,2.465-6.192,9.461,9.461,0,0,1,4.208-3.426,15.892,15.892,0,0,1,6.13-1.072,10.122,10.122,0,0,1,6.369,1.775q2.272,1.777,2.272,5.553a17.089,17.089,0,0,1-.384,3.361q-1.184,5.568-4.3,8.065T1915.48,350.063Zm1.088-5.121a4.972,4.972,0,0,0,3.632-1.3,8.042,8.042,0,0,0,1.938-4.145q.16-.768.239-1.424a9.8,9.8,0,0,0,.081-1.169,2.841,2.841,0,0,0-.816-2.287,4.2,4.2,0,0,0-2.705-.689,4.945,4.945,0,0,0-3.6,1.264,8.586,8.586,0,0,0-1.968,4.3q-.16.769-.256,1.409a7.988,7.988,0,0,0-.1,1.185,2.6,2.6,0,0,0,.847,2.191A4.439,4.439,0,0,0,1916.568,344.942Z" transform="translate(8.12)" fill="#e80000"/>
      <path id="Path_13935" data-name="Path 13935" d="M1924.6,349.687l4.351-20.611h10.722a6.188,6.188,0,0,1,4.482,1.488,5.254,5.254,0,0,1,1.536,3.953,10.375,10.375,0,0,1-.193,1.888,8.1,8.1,0,0,1-1.824,3.664,9.114,9.114,0,0,1-3.3,2.417,1.826,1.826,0,0,1,.48.688,7.705,7.705,0,0,1,.32,1.1l1.249,5.409h-6.274L1935,344.726a1.349,1.349,0,0,0-.449-.815,1.65,1.65,0,0,0-.993-.241h-1.7l-1.249,6.017Zm8.256-10.625h3.167a3.071,3.071,0,0,0,3.33-2.657c.042-.192.074-.372.1-.544a4.053,4.053,0,0,0,.031-.48,1.622,1.622,0,0,0-.479-1.265,2.438,2.438,0,0,0-1.632-.432h-3.361Z" transform="translate(11.896 0.056)" fill="#e80000"/>
      <path id="Path_13936" data-name="Path 13936" d="M1941.388,349.687l4.352-20.611h9.217a10.569,10.569,0,0,1,4.24.8,6.183,6.183,0,0,1,2.865,2.465,7.944,7.944,0,0,1,1.023,4.225,13,13,0,0,1-.08,1.408q-.08.737-.239,1.536a16.317,16.317,0,0,1-2.177,5.793,8.914,8.914,0,0,1-3.857,3.313,14.4,14.4,0,0,1-5.9,1.072Zm6.977-4.609h2.431a7.3,7.3,0,0,0,2.625-.432,4.1,4.1,0,0,0,1.921-1.632,10.2,10.2,0,0,0,1.28-3.5q.16-.831.256-1.536a9.512,9.512,0,0,0,.1-1.28,2.733,2.733,0,0,0-.9-2.368,4.982,4.982,0,0,0-2.848-.64H1950.8Z" transform="translate(15.465 0.056)" fill="#e80000"/>
    </g>
  </g>
</svg>
